<svg width="96" height="98" viewBox="0 0 96 98" fill="none" xmlns="http://www.w3.org/2000/svg">
<path d="M78.7711 65.0468C76.156 63.3407 72.6857 64.1259 71.0144 66.7928C65.0073 76.3852 54.7867 82.1129 43.6667 82.1129C25.7782 82.1129 11.2348 67.2612 11.2348 49.0053C11.2348 30.7494 25.7782 15.8977 43.6667 15.8977C53.1546 15.8977 61.9646 20.0924 68.0787 27.2681L61.2867 32.5407L81.1568 35.2901L83.8735 15.0008L77.0581 20.292C68.8087 10.2631 56.6979 4.42358 43.6667 4.42358C19.5911 4.42625 0 24.4281 0 49.0027C0 73.5772 19.5911 93.5791 43.6667 93.5791C58.6403 93.5791 72.4015 85.8711 80.4789 72.9624C82.1449 70.2955 81.3862 66.7555 78.7711 65.0468Z" fill="white"/>
<path d="M68.7148 54.451C72.8187 51.2491 76.5914 47.9008 76.5914 43.0647C76.5914 39.4263 74.0598 36.6183 69.3588 36.6183C66.7203 36.6183 64.0478 37.4913 62.194 38.6624L63.2265 42.4099C64.4415 41.646 66.0424 41.0232 68.1099 41.0232C70.1775 41.0232 71.3143 42.2236 71.3143 43.9004C71.3143 46.735 68.3237 49.5031 63.6854 53.3624L58.6899 57.2989L58.0902 60.6818H73.9164L74.7324 56.205L66.423 56.1997V56.1305L68.7148 54.451Z" fill="white"/>
<path d="M93.291 50.9217L95.8566 37.0149H89.547L78.4921 51.4301L77.856 54.9221H87.7297L86.6607 60.6659H91.4712L92.5428 54.9221H95.2934L96 50.9111H93.291V50.9217ZM89.5496 45.7902L88.4806 50.9244H83.6389L83.6754 50.8525L87.4951 45.8328C88.6005 44.2651 89.4922 42.7799 90.5247 41.175H90.6681C90.2979 42.6601 89.8703 44.2944 89.5496 45.7902Z" fill="white"/>
<path d="M57.1568 35.0798C56.5936 34.5342 55.6993 34.5555 55.1674 35.1304L46.725 44.1399C45.8412 43.557 44.7983 43.219 43.6641 43.219C43.6015 43.219 43.5259 43.227 43.4607 43.2296L31.96 31.9977C30.5651 30.6243 28.3411 30.6775 27.001 32.1068C25.6608 33.5361 25.713 35.8091 27.1079 37.1692L38.1002 47.9007C38.0324 48.2574 37.9959 48.6247 37.9959 49.0053C37.9959 50.2509 38.3817 51.3954 39.0336 52.3429L35.5867 56.0239C35.0549 56.5962 35.0757 57.5011 35.6363 58.0521C35.9074 58.3209 36.2568 58.446 36.6036 58.446C36.979 58.446 37.3414 58.2969 37.6204 58.0041L41.1794 54.2034C41.9329 54.584 42.775 54.7996 43.6693 54.7996C44.1282 54.7996 44.5714 54.7437 44.999 54.6346L47.5881 57.1604C48.2686 57.8205 49.1394 58.1479 50.0128 58.1479C50.9358 58.1479 51.8614 57.7779 52.5549 57.046C53.8924 55.6167 53.8429 53.349 52.4428 51.9863L49.3454 48.9574C49.3401 47.9699 49.0898 47.0384 48.6544 46.2319L57.2037 37.1026C57.733 36.5277 57.7121 35.6308 57.1568 35.0798Z" fill="white"/>
</svg>
