<svg width="107" height="108" viewBox="0 0 107 108" fill="none" xmlns="http://www.w3.org/2000/svg">
<path d="M31.088 61.6721C34.0949 61.6721 37.0015 61.4761 39.7519 61.1112V30.6827C37.0017 30.318 34.0949 30.1219 31.088 30.1219C13.9187 30.1219 0.000244141 36.4936 0.000244141 44.3537V47.4401C0.000244141 55.3 13.9187 61.6721 31.088 61.6721Z" fill="#4362CC"/>
<path d="M31.088 77.5607C34.0949 77.5607 37.0015 77.3647 39.7519 77.0003V68.0811C37.0009 68.4458 34.0957 68.6445 31.088 68.6445C16.1011 68.6445 3.5923 63.7894 0.654072 57.3277C0.22618 58.2689 0.000244141 59.2435 0.000244141 60.2425V63.329C0.000244141 71.1891 13.9187 77.5607 31.088 77.5607Z" fill="#4362CC"/>
<path d="M39.7516 84.6636V83.9703C37.0007 84.3349 34.0955 84.5337 31.0877 84.5337C16.1008 84.5337 3.59206 79.6785 0.653828 73.2168C0.225936 74.1578 0 75.1323 0 76.1314V79.2178C0 87.0782 13.9185 93.4499 31.0877 93.4499C34.5213 93.4499 37.8237 93.1944 40.9119 92.7238C40.1465 91.1433 39.7516 89.4765 39.7516 87.7497V84.6636Z" fill="#4362CC"/>
<path d="M75.9122 6.01825C58.743 6.01825 44.8245 12.3899 44.8245 20.25V23.3364C44.8245 31.1966 58.743 37.5682 75.9122 37.5682C93.0812 37.5682 107 31.1966 107 23.3364V20.25C107 12.3899 93.0812 6.01825 75.9122 6.01825Z" fill="#4362CC"/>
<path d="M75.9122 44.5408C60.9253 44.5408 48.4165 39.686 45.4783 33.224C45.0504 34.1649 44.8245 35.1395 44.8245 36.1388V39.2253C44.8245 47.0854 58.743 53.457 75.9122 53.457C93.0812 53.457 107 47.0854 107 39.2253V36.1388C107 35.1395 106.774 34.1649 106.346 33.224C103.408 39.686 90.8991 44.5408 75.9122 44.5408Z" fill="#4362CC"/>
<path d="M75.9122 60.43C60.9253 60.43 48.4165 55.5748 45.4783 49.1131C45.0504 50.0541 44.8245 51.0286 44.8245 52.028V55.1144C44.8245 62.9748 58.743 69.3464 75.9122 69.3464C93.0812 69.3464 107 62.9748 107 55.1144V52.028C107 51.0286 106.774 50.0541 106.346 49.1131C103.408 55.5751 90.8991 60.43 75.9122 60.43Z" fill="#4362CC"/>
<path d="M75.9122 77.1767C60.9253 77.1767 48.4165 72.3215 45.4783 65.8598C45.0504 66.8011 44.8245 67.7754 44.8245 68.7744V71.8612C44.8245 79.7213 58.743 86.0929 75.9122 86.0929C93.0812 86.0929 107 79.7213 107 71.8612V68.7744C107 67.7754 106.774 66.8005 106.346 65.8598C103.408 72.3213 90.8991 77.1767 75.9122 77.1767Z" fill="#4362CC"/>
<path d="M75.9122 93.0656C60.9253 93.0656 48.4165 88.2107 45.4783 81.749C45.0504 82.6902 44.8245 83.665 44.8245 84.6636V87.75C44.8245 95.6101 58.743 101.982 75.9122 101.982C93.0812 101.982 107 95.6101 107 87.75V84.6633C107 83.6642 106.774 82.6894 106.346 81.7487C103.408 88.2104 90.8991 93.0656 75.9122 93.0656Z" fill="#4362CC"/>
</svg>
