<svg width="56" height="52" viewBox="0 0 56 52" fill="none" xmlns="http://www.w3.org/2000/svg">
<path d="M45.9498 35.1695C44.4243 34.1946 42.4 34.6433 41.4251 36.1672C37.9209 41.6486 31.9589 44.9216 25.4722 44.9216C15.0373 44.9216 6.55361 36.4349 6.55361 26.003C6.55361 15.5711 15.0373 7.08436 25.4722 7.08436C31.0068 7.08436 36.146 9.48132 39.7126 13.5817L35.7506 16.5946L47.3414 18.1657L48.9262 6.57182L44.9506 9.59539C40.1384 3.86459 33.0738 0.52771 25.4722 0.52771C11.4281 0.529231 0 11.9589 0 26.0015C0 40.0441 11.4281 51.4737 25.4722 51.4737C34.2068 51.4737 42.2342 47.0691 46.946 39.6927C47.9179 38.1688 47.4753 36.146 45.9498 35.1695Z" fill="#3E45FF"/>
<path d="M40.0836 29.1148C42.4776 27.2851 44.6783 25.3718 44.6783 22.6083C44.6783 20.5292 43.2015 18.9247 40.4593 18.9247C38.9201 18.9247 37.3612 19.4235 36.2798 20.0927L36.8821 22.2342C37.5909 21.7977 38.5247 21.4418 39.7308 21.4418C40.9369 21.4418 41.6 22.1277 41.6 23.0859C41.6 24.7057 39.8555 26.2874 37.1498 28.4927L34.2357 30.7422L33.8859 32.6753H43.1179L43.5939 30.1171L38.7468 30.114V30.0745L40.0836 29.1148Z" fill="#3E45FF"/>
<path d="M54.4198 27.098L55.9163 19.1512H52.2357L45.7871 27.3885L45.416 29.384H51.1756L50.5521 32.6661H53.3582L53.9833 29.384H55.5878L56 27.0919H54.4198V27.098ZM52.2372 24.1657L51.6137 27.0995H48.7893L48.8106 27.0585L51.0388 24.19C51.6836 23.2942 52.2038 22.4455 52.8061 21.5284H52.8897C52.6738 22.3771 52.4243 23.3109 52.2372 24.1657Z" fill="#3E45FF"/>
<path d="M33.3415 18.0456C33.013 17.7338 32.4913 17.746 32.181 18.0745L27.2563 23.2228C26.7407 22.8897 26.1323 22.6965 25.4707 22.6965C25.4342 22.6965 25.3901 22.7011 25.3521 22.7026L18.6434 16.2844C17.8297 15.4996 16.5323 15.53 15.7506 16.3467C14.9689 17.1635 14.9993 18.4623 15.813 19.2395L22.2251 25.3718C22.1856 25.5756 22.1643 25.7855 22.1643 26.003C22.1643 26.7148 22.3894 27.3688 22.7696 27.9102L20.759 30.0137C20.4487 30.3406 20.4609 30.8578 20.7879 31.1726C20.946 31.3262 21.1498 31.3977 21.3521 31.3977C21.5711 31.3977 21.7825 31.3125 21.9453 31.1452L24.0213 28.9733C24.4609 29.1908 24.9521 29.314 25.4738 29.314C25.7415 29.314 26 29.2821 26.2495 29.2197L27.7597 30.6631C28.1567 31.0403 28.6647 31.2273 29.1742 31.2273C29.7126 31.2273 30.2525 31.0159 30.6571 30.5977C31.4373 29.781 31.4084 28.4851 30.5917 27.7064L28.7848 25.9756C28.7818 25.4114 28.6358 24.8791 28.3818 24.4182L33.3688 19.2015C33.6776 18.873 33.6654 18.3604 33.3415 18.0456Z" fill="#3E45FF"/>
</svg>
