<svg width="41" height="40" viewBox="0 0 41 40" fill="none" xmlns="http://www.w3.org/2000/svg">
<path d="M29.6093 12.1845V15.2243C29.6093 15.8057 30.2478 16.1629 30.7671 15.8722L40.6169 10.324C41.1277 10.0333 41.1277 9.31073 40.6169 9.02003L30.7671 3.48018C30.2563 3.18948 29.6093 3.55493 29.6093 4.12801V7.16788H21.3088C21.4876 7.96522 21.5813 8.78748 21.5813 9.63465C21.5813 10.515 21.4876 11.3622 21.3088 12.1928H29.6093V12.1845Z" fill="#3E45FF"/>
<path d="M11.3909 27.8821V24.8423C11.3909 24.2609 10.7524 23.9037 10.2331 24.1944L0.383219 29.7426C-0.127577 30.0333 -0.127577 30.7559 0.383219 31.0466L10.2331 36.5947C10.7439 36.8854 11.3909 36.52 11.3909 35.9469V32.907H19.7424C19.5636 32.1014 19.4615 31.2625 19.4615 30.3987C19.4615 29.5349 19.5551 28.6961 19.7424 27.8904H11.3909V27.8821Z" fill="#3E45FF"/>
<path d="M9.45836 18.9037C14.66 18.8871 18.8655 14.7426 18.8485 9.64293C18.8315 4.54327 14.5919 0.431983 9.39025 0.4569C4.18013 0.473511 -0.0169139 4.61802 0.000112657 9.70937C0.0171392 14.809 4.25675 18.9203 9.45836 18.9037ZM4.20567 8.17283H5.28685C5.36347 7.91536 5.43158 7.64958 5.54225 7.40041C6.0871 6.10473 6.99802 5.1828 8.37717 4.74261C9.51795 4.37716 10.6672 4.38546 11.8165 4.69277C12.1145 4.77583 12.4125 4.8755 12.6934 5.00008C12.9658 5.12466 13.0424 5.3323 12.9318 5.58978C12.8126 5.88048 12.6934 6.16287 12.5572 6.44526C12.438 6.69443 12.2933 6.76918 12.0123 6.71104C11.6548 6.63629 11.3057 6.52832 10.9482 6.45357C10.2586 6.31237 9.56903 6.30406 8.88797 6.52001C8.03664 6.78579 7.58544 7.3921 7.31301 8.17283L9.62862 8.16453C9.8074 8.16453 9.96064 8.30572 9.96064 8.48014V9.19442C9.96064 9.36884 9.81591 9.51834 9.63713 9.51834L7.10018 9.52665C7.10018 9.72598 7.10018 9.91701 7.10018 10.108L9.62862 10.0997C9.8074 10.0997 9.96064 10.2409 9.96064 10.4154V11.1296C9.96064 11.3041 9.81591 11.4536 9.63713 11.4536L7.42368 11.4619C7.42368 11.4702 7.42368 11.4785 7.42368 11.4868C7.6876 12.0765 8.07921 12.5499 8.7177 12.7908C9.45836 13.0732 10.216 13.0648 10.9737 12.907C11.3313 12.8323 11.6888 12.7243 12.0464 12.6413C12.3103 12.5831 12.4635 12.6579 12.5742 12.8987C12.7019 13.1728 12.8296 13.4552 12.9488 13.7376C13.0595 14.0034 12.9999 14.1944 12.7445 14.3439C12.6849 14.3771 12.6168 14.4104 12.5487 14.4353C11.4845 14.8423 10.3863 15.0001 9.24552 14.8256C8.44528 14.7011 7.69611 14.4353 7.05761 13.9536C6.24034 13.3389 5.71252 12.5333 5.40604 11.5781L5.36347 11.4702L4.22269 11.4785C4.04392 11.4785 3.89068 11.3373 3.89068 11.1629V10.4486C3.89068 10.2742 4.0354 10.1247 4.21418 10.1247H5.10807C5.10807 9.92532 5.10807 9.7426 5.10807 9.54326H4.21418C4.0354 9.54326 3.88216 9.40206 3.88216 9.22765V8.51336C3.88216 8.32233 4.02689 8.17283 4.20567 8.17283Z" fill="#3E45FF"/>
<path d="M31.5758 21.2375C26.3913 21.2375 22.1942 25.3322 22.1942 30.3904C22.1942 35.4485 26.3913 39.5432 31.5758 39.5432C36.7604 39.5432 40.9575 35.4485 40.9575 30.3904C40.9575 25.3405 36.7604 21.2375 31.5758 21.2375ZM34.2746 34.0033C33.8659 34.485 33.3296 34.8173 32.7081 34.9834C32.4357 35.0581 32.3165 35.191 32.325 35.4734C32.3335 35.7392 32.325 36.0133 32.325 36.2873C32.325 36.5282 32.1973 36.6611 31.9589 36.6611C31.661 36.6694 31.363 36.6694 31.065 36.6611C30.8011 36.6528 30.6819 36.5116 30.6734 36.2624C30.6734 36.0631 30.6734 35.8638 30.6649 35.6727C30.6564 35.2408 30.6479 35.2159 30.2137 35.1495C29.6604 35.0664 29.124 34.9418 28.6217 34.701C28.2301 34.5099 28.1876 34.4186 28.2982 34.0116C28.3834 33.7126 28.4685 33.4136 28.5621 33.1146C28.6728 32.7658 28.7665 32.7242 29.0985 32.8903C29.6518 33.1727 30.2478 33.3305 30.8607 33.4053C31.2609 33.4551 31.6525 33.4136 32.0185 33.2558C32.7081 32.9651 32.8188 32.1844 32.2314 31.7109C32.0356 31.5531 31.8057 31.4369 31.5758 31.3372C30.9714 31.0797 30.3414 30.8804 29.771 30.5482C28.8431 30.0083 28.2557 29.2608 28.3238 28.1644C28.4004 26.9186 29.124 26.1462 30.2903 25.7309C30.7756 25.5565 30.7756 25.5648 30.7756 25.0747C30.7756 24.9086 30.7756 24.7425 30.7756 24.5764C30.7841 24.2027 30.8522 24.1445 31.2268 24.1279C31.346 24.1279 31.4652 24.1279 31.5758 24.1279C32.3846 24.1279 32.3846 24.1279 32.3846 24.9169C32.3846 25.4734 32.3846 25.4734 32.955 25.5648C33.3892 25.6312 33.8063 25.7558 34.2064 25.9302C34.4278 26.0216 34.5129 26.1794 34.4448 26.4036C34.3427 26.7442 34.249 27.0847 34.1383 27.4169C34.0362 27.7326 33.9255 27.7824 33.619 27.6329C32.989 27.3339 32.3335 27.2093 31.6354 27.2508C31.4567 27.2591 31.2779 27.284 31.1076 27.3588C30.5032 27.6163 30.4095 28.2641 30.9203 28.6628C31.1757 28.8621 31.4737 29.0116 31.7802 29.1362C32.308 29.3521 32.8443 29.5598 33.3551 29.8256C34.9726 30.6894 35.4068 32.6578 34.2746 34.0033Z" fill="#3E45FF"/>
</svg>
