<svg width="102" height="102" viewBox="0 0 102 102" fill="none" xmlns="http://www.w3.org/2000/svg">
<g clip-path="url(#clip0_38_163)">
<path d="M24.715 47.432L7.96802 64.86V94.266C7.96802 95.094 8.63902 95.766 9.46802 95.766H29.802C30.63 95.766 31.302 95.094 31.302 94.266V49.158L26.612 47.432H24.715Z" fill="#4362CC"/>
<path d="M66.135 61.1H45.801C44.973 61.1 44.301 61.772 44.301 62.6V94.266C44.301 95.094 44.973 95.766 45.801 95.766H66.135C66.964 95.766 67.635 95.094 67.635 94.266V62.6C67.635 61.772 66.964 61.1 66.135 61.1Z" fill="#4362CC"/>
<path d="M101.724 29.49C100.947 29.896 100.072 30.111 99.194 30.111C97.918 30.111 96.673 29.661 95.694 28.841L92 25.753L78.635 40.333V94.267C78.635 95.095 79.307 95.767 80.135 95.767H100.469C101.298 95.767 101.969 95.095 101.969 94.267V29.337C101.885 29.387 101.81 29.445 101.724 29.49Z" fill="#4362CC"/>
<path d="M57.7971 54.094C58.9411 54.513 60.2211 54.202 61.0451 53.306L91.8841 19.663L99.1011 25.695C99.4541 25.989 99.9481 26.044 100.355 25.831C100.762 25.617 101.001 25.183 100.96 24.724L99.3961 7.235C99.3411 6.61 98.7901 6.149 98.1651 6.206L80.6751 7.769C80.2171 7.81 79.8291 8.123 79.6931 8.56C79.6461 8.706 79.6311 8.854 79.6441 9C79.6701 9.294 79.8111 9.572 80.0471 9.769L87.2761 15.812L57.9801 47.769L24.5351 35.463C23.4171 35.053 22.1621 35.342 21.3371 36.198L0.83709 57.531C-0.31091 58.726 -0.27291 60.626 0.92109 61.773C1.50409 62.334 2.25309 62.61 3.00009 62.61C3.78809 62.61 4.57409 62.301 5.16409 61.689L24.3051 41.769L57.7971 54.094Z" fill="#4362CC"/>
</g>
<defs>
<clipPath id="clip0_38_163">
<rect width="101.968" height="101.968" fill="white"/>
</clipPath>
</defs>
</svg>
