<svg width="110" height="110" viewBox="0 0 110 110" fill="none" xmlns="http://www.w3.org/2000/svg">
<g clip-path="url(#clip0_38_178)">
<path d="M56.551 37.7953V35.8621C56.551 34.3379 55.316 33.1029 53.7918 33.1029C52.2677 33.1029 51.0327 34.3379 51.0327 35.8621V37.8612C46.1225 39.1495 42.4863 43.6698 42.4863 49.0332C42.4863 54.3952 46.1228 58.914 51.0327 60.2016V71.8004C48.6399 70.5885 46.3701 68.3407 45.5519 67.3743C44.5711 66.2081 42.831 66.0572 41.6644 67.0384C40.4982 68.0188 40.3477 69.7593 41.3285 70.9259C41.8528 71.5491 45.9514 76.268 51.033 77.7094V79.757C51.033 81.2812 52.268 82.5162 53.7922 82.5162C55.3164 82.5162 56.5514 81.2812 56.5514 79.757V77.8087C61.569 76.5954 65.3115 72.0266 65.3115 66.5885C65.3115 61.1511 61.569 56.583 56.5514 55.3697V43.5473C59.0442 44.4806 61.3026 46.3918 62.1528 47.2703C63.2065 48.3696 64.9506 48.4067 66.051 47.3549C67.1521 46.3017 67.1914 44.5553 66.1382 43.4535C65.6378 42.9311 61.6742 38.9314 56.551 37.7953ZM48.0042 49.0332C48.0042 46.7748 49.2282 44.8055 51.0323 43.7746V54.2885C49.2282 53.2584 48.0042 51.2899 48.0042 49.0332ZM59.7925 66.5888C59.7925 68.9327 58.4706 70.963 56.5506 71.9571V61.2221C58.471 62.2154 59.7925 64.245 59.7925 66.5888Z" fill="#3B68D3"/>
<path d="M98.0859 75.899C95.1031 75.899 92.3749 77.0037 90.2823 78.8219L82.4029 73.5691C84.9884 68.8933 86.4629 63.521 86.4629 57.8099C86.4629 50.9657 84.3461 44.6079 80.7352 39.3526L86.0512 35.0991C87.9109 36.3002 90.1226 37.0007 92.4966 37.0007C99.066 37.0007 104.411 31.656 104.411 25.0863C104.411 18.5165 99.0664 13.1715 92.4966 13.1715C85.9269 13.1715 80.5818 18.5162 80.5818 25.0863C80.5818 27.2785 81.1796 29.3332 82.2167 31.0998L77.2392 35.0825C71.2974 28.9532 62.9824 25.137 53.7919 25.137C45.7712 25.137 38.4182 28.0437 32.7258 32.8572L22.1516 22.3794C23.2152 20.5969 23.8285 18.5162 23.8285 16.2941C23.8285 9.72438 18.4842 4.3797 11.9148 4.3797C5.34468 4.3797 0 9.72438 0 16.2941C0 22.8635 5.34468 28.2085 11.9148 28.2085C14.2663 28.2085 16.4597 27.5206 18.3083 26.3397L28.8255 36.7612C24.0209 42.4513 21.1205 49.7981 21.1205 57.8103C21.1205 64.766 23.3064 71.2194 27.0262 76.5237L17.0465 84.8401C15.8508 84.2254 14.4974 83.8759 13.0633 83.8759C8.24253 83.8759 4.32085 87.7976 4.32085 92.618C4.32085 97.4385 8.24253 101.36 13.0633 101.36C17.8834 101.36 21.8047 97.4385 21.8047 92.618C21.8047 91.2473 21.4869 89.9497 20.9225 88.7938L30.5623 80.7603C36.489 86.759 44.7138 90.4824 53.7922 90.4824C58.0616 90.4824 62.1411 89.6584 65.8829 88.1622L68.3418 93.0794C67.002 94.4093 66.1706 96.2505 66.1706 98.2828C66.1706 102.328 69.4617 105.62 73.507 105.62C77.5526 105.62 80.8438 102.328 80.8438 98.2828C80.8438 94.2375 77.5526 90.9463 73.507 90.9463C73.4864 90.9463 73.4669 90.9493 73.4466 90.9493L70.8151 85.6866C74.0757 83.6879 76.9596 81.1333 79.3358 78.1556L87.0607 83.3053C86.4897 84.697 86.1726 86.2186 86.1726 87.8134C86.1726 94.3828 91.5169 99.7275 98.0867 99.7275C104.656 99.7275 110.001 94.3831 110.001 87.8134C110 81.2437 104.656 75.899 98.0859 75.899ZM92.4966 18.6902C96.0232 18.6902 98.8924 21.5597 98.8924 25.0866C98.8924 28.6136 96.0232 31.4827 92.4966 31.4827C88.9697 31.4827 86.1002 28.6136 86.1002 25.0866C86.1002 21.5597 88.9697 18.6902 92.4966 18.6902ZM13.063 95.8415C11.2853 95.8415 9.8388 94.3953 9.8388 92.6177C9.8388 90.84 11.2853 89.3939 13.063 89.3939C14.8402 89.3939 16.286 90.84 16.286 92.6177C16.286 94.3953 14.8402 95.8415 13.063 95.8415ZM75.3251 98.2831C75.3251 99.2864 74.5091 100.102 73.5066 100.102C72.5041 100.102 71.6885 99.286 71.6885 98.2831C71.6885 97.2803 72.5041 96.465 73.5066 96.465C74.5091 96.465 75.3251 97.2803 75.3251 98.2831ZM11.9148 22.6899C8.38785 22.6899 5.51832 19.8207 5.51832 16.2941C5.51832 12.7672 8.38785 9.89802 11.9148 9.89802C15.441 9.89802 18.3102 12.7672 18.3102 16.2941C18.3102 19.8207 15.441 22.6899 11.9148 22.6899ZM53.7919 84.9641C38.8195 84.9641 26.6384 72.783 26.6384 57.8099C26.6384 42.8369 38.8192 30.6554 53.7919 30.6554C68.7638 30.6554 80.9449 42.8365 80.9449 57.8099C80.9446 72.7826 68.7638 84.9641 53.7919 84.9641ZM98.0859 94.2095C94.5594 94.2095 91.6902 91.3403 91.6902 87.8138C91.6902 84.2868 94.5594 81.4173 98.0859 81.4173C101.613 81.4173 104.482 84.2868 104.482 87.8138C104.482 91.3403 101.613 94.2095 98.0859 94.2095Z" fill="#3B68D3"/>
</g>
<defs>
<clipPath id="clip0_38_178">
<rect width="110" height="110" fill="white"/>
</clipPath>
</defs>
</svg>
