<svg width="50" height="67" viewBox="0 0 50 67" fill="none" xmlns="http://www.w3.org/2000/svg">
<path d="M48.3599 38.3126C47.2799 36.4997 45.8075 35.0774 43.9429 34.071C42.6596 33.3541 40.795 32.6832 38.3632 32.0834C40.6296 31.3344 42.4564 30.4015 43.8318 29.2526C45.2214 28.0946 46.2684 26.771 46.9939 25.2844C47.736 23.7909 48.1212 22.2146 48.1212 20.5465C48.1212 18.2648 47.424 16.1601 46.0344 14.2391C44.6353 12.3182 42.6596 10.8523 40.0789 9.83665C39.0863 9.43914 37.9 9.13814 36.5884 8.89458V0L27.8182 0V8.29716H22.17V0L13.3951 0V8.29716H0L0 15.2639H2.02297C3.38895 15.2639 4.32717 15.388 4.80219 15.6316C5.27958 15.8705 5.63171 16.1945 5.83258 16.6104C6.03583 17.0171 6.13036 17.973 6.13036 19.4688V47.5863C6.13036 49.0638 6.03583 49.9921 5.83258 50.4103C5.63171 50.8376 5.2843 51.1547 4.80219 51.4029C4.32717 51.6281 3.38895 51.7384 2.02297 51.7384H0L0 58.6982H13.3951V67H22.17L22.17 58.6982H27.1636C27.3834 58.6982 27.6008 58.6982 27.8135 58.6982L27.8135 67H36.5836V57.9928C38.0701 57.7194 39.3676 57.361 40.4712 56.929C43.4986 55.7525 45.843 54.0384 47.502 51.7866C49.1776 49.5302 50 47.0602 50 44.3856C49.9976 42.1591 49.4541 40.1347 48.3599 38.3126ZM18.9606 16.4197H24.642C27.96 16.4197 30.2784 16.6219 31.5664 17.0309C32.8449 17.4215 33.8375 18.0902 34.511 19.0253C35.1987 19.9743 35.5367 21.114 35.5367 22.4329C35.5367 23.7036 35.1728 24.8249 34.4661 25.8037C33.7359 26.7871 32.6653 27.5132 31.245 27.9843C29.8176 28.4737 27.6221 28.7195 24.6491 28.7195H18.9677L18.9606 16.4197ZM35.0144 47.5932C33.9935 48.8363 32.7858 49.6704 31.323 50.061C29.8885 50.4562 28.064 50.6584 25.8591 50.6584H22.0731C20.8158 50.6584 20.043 50.5872 19.7523 50.4562C19.4616 50.339 19.2679 50.0978 19.1379 49.7646C19.0504 49.4912 18.9772 48.5928 18.963 47.0349V36.1206H25.67C28.6335 36.1206 30.7983 36.3848 32.2399 36.9202C33.6697 37.4487 34.7592 38.2299 35.4563 39.2754C36.1819 40.3025 36.5505 41.5548 36.5505 43.0621C36.5529 44.829 36.0401 46.3272 35.0144 47.5932Z" fill="#FFB31A"/>
</svg>
